<svg xmlns="http://www.w3.org/2000/svg" width="37.945" height="32" viewBox="0 0 37.945 32"><defs><style>.a{fill:#fff;}</style></defs><g transform="translate(-246.792 777.145)"><g transform="translate(246.792 -777.145)"><g transform="translate(0 0)"><path class="a" d="M4,26.6H8.682V39.039a2.514,2.514,0,0,0,2.5,2.5h7.53V30.145h6.516V41.5h7.53a2.514,2.514,0,0,0,2.5-2.5V26.6H39.9L21.948,11.5Z" transform="translate(-2.933 -10.543)"/><path class="a" d="M2.388,26.156H7.039l-.977-.977V37.49c0,2.58,2.071,3.635,4.3,3.635h6.722a.968.968,0,0,0,.977-.977V28.774l-.977.977H23.61l-.977-.977V40.148a.968.968,0,0,0,.977.977h6.449c2.267,0,4.573-.821,4.573-3.557V25.179l-.977.977h4.651a1,1,0,0,0,.7-1.681Q30.04,16.912,21.031,9.389a1.019,1.019,0,0,0-1.368,0q-8.97,7.563-17.979,15.086c-.977.821.43,2.189,1.368,1.368q8.97-7.563,17.979-15.086H19.663q8.97,7.563,17.979,15.086c.235-.547.469-1.094.7-1.681H33.694a.968.968,0,0,0-.977.977v11.3a3.172,3.172,0,0,1-.43,2.228c-.586.7-2.111.508-2.853.508H23.61l.977.977V28.774a.968.968,0,0,0-.977-.977H17.083a.968.968,0,0,0-.977.977V40.148l.977-.977H9.54c-1.524,0-1.524-1.407-1.524-2.462V25.179a.968.968,0,0,0-.977-.977H2.388A.978.978,0,0,0,2.388,26.156Z" transform="translate(-1.353 -9.125)"/></g></g></g></svg>