<svg xmlns="http://www.w3.org/2000/svg" width="28.5" height="38" viewBox="0 0 28.5 38"><defs><style>.a{fill:#fff;}</style></defs><g transform="translate(-101 426)"><g transform="translate(101 -426)"><path class="a" d="M31.25,958.362a3.449,3.449,0,0,0-3.347,2.591H23.909v4.318H38.591v-4.318H34.6A3.449,3.449,0,0,0,31.25,958.362ZM17,962.68v33.682H45.5V962.68H39.454v2.591a.9.9,0,0,1-.864.864H23.909a.9.9,0,0,1-.864-.864V962.68ZM28.241,967.4a.864.864,0,0,1,.648,1.444l-4.318,5.182a.9.9,0,0,1-1.268.054l-2.591-2.591a.864.864,0,1,1,1.214-1.228l1.93,1.93,3.711-4.453a.874.874,0,0,1,.567-.324.883.883,0,0,1,.108-.013Zm2.577,3.913H41.182a.864.864,0,1,1,0,1.727H30.818a.864.864,0,1,1,0-1.727ZM28.241,976.9a.864.864,0,0,1,.648,1.444l-4.318,5.182a.9.9,0,0,1-1.268.054l-2.591-2.591a.864.864,0,1,1,1.214-1.228l1.93,1.93,3.711-4.453a.874.874,0,0,1,.567-.324.827.827,0,0,1,.108-.013Zm2.577,3.913H41.182a.864.864,0,0,1,0,1.727H30.818a.864.864,0,0,1,0-1.727ZM28.241,986.4a.864.864,0,0,1,.648,1.444l-4.318,5.182a.9.9,0,0,1-1.268.054l-2.591-2.591a.864.864,0,1,1,1.214-1.228l1.93,1.93,3.711-4.453a.873.873,0,0,1,.567-.324.828.828,0,0,1,.108-.013Zm2.577,3.913H41.182a.864.864,0,1,1,0,1.727H30.818a.864.864,0,1,1,0-1.727Z" transform="translate(-17 -958.362)"/></g></g></svg>