<svg xmlns="http://www.w3.org/2000/svg" width="144.003" height="43" viewBox="0 0 144.003 43"><defs><style>.a,.b{fill:#fff;}.b{font-size:32px;font-family:SegoeUI, Segoe UI;}</style></defs><g transform="translate(-825.997 472)"><path class="a" d="M17.015,0A2.468,2.468,0,0,0,14.84,2.29V16.028a2.178,2.178,0,1,0,4.35,0V2.29A2.214,2.214,0,0,0,17.015,0ZM9.359,5.724a2.179,2.179,0,0,0-.572.215,14.419,14.419,0,0,0-7.155,17.1,15.814,15.814,0,0,0,15.312,11.3A15.923,15.923,0,0,0,32.328,23.4c1.926-6.027-.133-13.334-7.155-17.388a2.284,2.284,0,0,0-3.006.787A2.282,2.282,0,0,0,22.954,9.8c5.474,3.159,6.6,8,5.223,12.307a11.385,11.385,0,0,1-11.234,7.871A11.334,11.334,0,0,1,5.782,21.751C4.459,17.3,5.674,12.482,10.79,9.8A2.244,2.244,0,0,0,11.834,7.27a2.244,2.244,0,0,0-2.26-1.547q-.108-.005-.215,0Z" transform="translate(824.987 -465.672)"/><text class="b" transform="translate(919 -437)"><tspan x="-50.18" y="0">Logout</tspan></text></g></svg>