<svg xmlns="http://www.w3.org/2000/svg" width="44" height="44" viewBox="0 0 44 44"><defs><style>.a,.b{fill:#fff;}.a{opacity:0;}</style></defs><g transform="translate(-1452 -396)"><rect class="a" width="44" height="44" transform="translate(1452 396)"/><g transform="translate(1449 395.46)"><path class="b" d="M45.723,9.807H45.09V8.54h.634a3.169,3.169,0,0,1,3.168,3.168V36.389H47.624V11.708a1.9,1.9,0,0,0-.551-1.343A1.925,1.925,0,0,0,45.723,9.807Z" transform="translate(-11.794 -1.099)"/><path class="b" d="M37.282,52.244l.013-.634,1.267.013-.013.634a3.631,3.631,0,0,1-.2,1.166,4.37,4.37,0,0,1-.564,1.159,3.365,3.365,0,0,1-.982.957,2.74,2.74,0,0,1-1.419.412H20.057a3.538,3.538,0,0,1-2.179-.767,3.075,3.075,0,0,1-.684-.748,1.82,1.82,0,0,1-.3-.931l-.025-.634,1.267-.051.025.634a.468.468,0,0,0,.1.285,1.592,1.592,0,0,0,.405.443,2.239,2.239,0,0,0,1.4.5H35.381a1.466,1.466,0,0,0,.748-.215,2.139,2.139,0,0,0,.615-.6,3.1,3.1,0,0,0,.405-.836A2.379,2.379,0,0,0,37.282,52.244Z" transform="translate(-1.451 -16.884)"/><path class="b" d="M24.384,6.807H23.75V5.54H35.369a3.169,3.169,0,0,1,3.168,3.168V33.389H37.269V8.708a1.9,1.9,0,0,0-.551-1.343,1.925,1.925,0,0,0-1.349-.557Z" transform="translate(-3.973 0)"/><path class="b" d="M33.3,37.567l.006-.633,1.267.013-.006.633a2.694,2.694,0,0,1-.253,1.134,3.293,3.293,0,0,1-.672.963,3.175,3.175,0,0,1-2.23.963H16.078a3.169,3.169,0,0,1-3.168-3.168V16.75h1.267V37.472a1.9,1.9,0,0,0,.551,1.343,1.925,1.925,0,0,0,1.349.557H31.4a1.93,1.93,0,0,0,1.343-.589,1.949,1.949,0,0,0,.418-.6A1.505,1.505,0,0,0,33.3,37.567Z" transform="translate(0 -4.108)"/><path class="b" d="M19.5,11.386V6.54h1.267v4.846A3.169,3.169,0,0,1,17.6,14.554H12.91V13.287H17.6a1.9,1.9,0,0,0,1.9-1.9Z" transform="translate(0 -0.366)"/><path class="b" d="M19.334,6.006l.443-.456.906.881-.437.456-5.987,6.189-.437.45-.912-.881.443-.45Z" transform="translate(0 -0.004)"/><path class="b" d="M34.844,13.99h.634v1.267H27.66V13.99h7.184Z" transform="translate(-5.406 -3.097)"/><path class="b" d="M31.78,22.01h.634v1.267H19.3V22.01H31.78Z" transform="translate(-2.342 -6.036)"/><path class="b" d="M31.78,30.01h.634v1.267H19.3V30.01H31.78Z" transform="translate(-2.342 -8.968)"/><path class="b" d="M31.78,38.01h.634v1.267H19.3V38.01H31.78Z" transform="translate(-2.342 -11.9)"/><path class="b" d="M31.831,46.01h.634v1.267H19.3V46.01H31.831Z" transform="translate(-2.342 -14.832)"/></g></g></svg>