<svg id="update_icon" xmlns="http://www.w3.org/2000/svg" width="25" height="29.395" viewBox="0 0 25 29.395">
  <path id="Path_333" data-name="Path 333" d="M1.8,14.986a.832.832,0,0,1-.865.865A.893.893,0,0,1,0,14.986,13.081,13.081,0,0,1,21.182,4.611V.937A.893.893,0,0,1,22.046,0a.954.954,0,0,1,.937.937l.072,6.052a.893.893,0,0,1-.865.937L16.066,8a.9.9,0,0,1-.072-1.8l4.179-.072A11.334,11.334,0,0,0,1.8,14.986Z" fill="#fff"/>
  <path id="Path_334" data-name="Path 334" d="M48.08,188.937a.937.937,0,1,1,1.873,0,13.135,13.135,0,0,1-21.254,10.3l.072,3.674a.954.954,0,0,1-.937.937.876.876,0,0,1-.865-.865l-.072-6.124a.851.851,0,0,1,.865-.937l6.124-.072a.893.893,0,0,1,.937.865.954.954,0,0,1-.937.937l-4.107.072a11.281,11.281,0,0,0,18.3-8.79Z" transform="translate(-24.953 -174.455)" fill="#fff"/>
</svg>
