<svg xmlns="http://www.w3.org/2000/svg" width="45.98" height="44.727" viewBox="0 0 45.98 44.727"><defs><style>.a{fill:#4d4d4d;}</style></defs><g transform="translate(-0.003 -1.362)"><path class="a" d="M45.1,41.415c-1.309-2.944-7.7-4.891-11.944-6.72s-3.665-2.937-3.818-4.454c-.021-.208-.034-.429-.043-.656a12.555,12.555,0,0,0,3.42-4.97s.04-.1.052-.132c.163-.432.307-.883.431-1.342a2.646,2.646,0,0,0,1.757-2.181,4.305,4.305,0,0,0,.569-2.421,2.469,2.469,0,0,0-1.356-2.305c0-.084,0-.163,0-.241a35.575,35.575,0,0,0-.5-6,9.98,9.98,0,0,0-.318-1.385,10.246,10.246,0,0,0-3.69-5.2,11.787,11.787,0,0,0-13.277,0,10.246,10.246,0,0,0-3.69,5.2,9.98,9.98,0,0,0-.318,1.385,35.563,35.563,0,0,0-.5,6c0,.072,0,.145,0,.222-.666.257-1.267.9-1.405,2.324a4.305,4.305,0,0,0,.569,2.421,2.611,2.611,0,0,0,1.808,2.19c.125.462.271.915.436,1.351.011.029.022.056.033.084l.015.038a12.512,12.512,0,0,0,3.5,5.033c-.009.2-.022.4-.04.584-.153,1.516.294,2.626-3.952,4.454S2.2,38.47.892,41.414.106,46.089.106,46.089H45.879S46.405,44.358,45.1,41.415Z" transform="translate(0)"/></g></svg>